<svg width="154" height="67" viewBox="0 0 154 67" fill="none" xmlns="http://www.w3.org/2000/svg">
<path d="M5.5708 64.6036L33.674 5.32752L47.8939 35.3122L73.6799 24.1422L66.2134 25.4493C62.5891 10.8333 49.3991 0 33.674 0C15.1564 0 0.164062 14.9923 0.164062 33.5099C0.164062 41.1348 2.69909 48.1457 6.99676 53.7703L5.5708 64.6036Z" fill="#14CF93"/>
<path d="M27.3566 51.5713L31.7533 42.2828L40.4477 38.5199L33.6546 24.1812L17.9097 57.4534L13.3149 60.1072C18.9593 64.4247 26.0099 66.9994 33.6744 66.9994C41.3389 66.9994 48.3894 64.4247 54.0338 60.1072L49.4391 57.4534L45.082 48.2639L52.093 44.2039L61.7577 64.603L60.3318 53.7697C64.6096 48.1451 67.1645 41.1143 67.1645 33.5093C67.1645 31.8655 67.0457 30.2613 66.808 28.6769L27.3566 51.5713Z" fill="#14CF93"/>
</svg>